<svg width="624" height="351" xmlns="http://www.w3.org/2000/svg" xmlns:xlink="http://www.w3.org/1999/xlink" xml:space="preserve" overflow="hidden"><g><path d="M0 0 624 0 624 351 0 351Z" fill="#E97132"/><path d="M53.3508 125.458 113.813 87.5854 59.7238 41.0627 122.754 74.488 135.999 4.38368 138.567 75.6822 205.901 52.1005 145.439 89.9734 199.529 136.497 136.499 103.071 123.254 173.176 120.686 101.877Z" transform="matrix(1.20351 0 0 1 81.9051 2.37047)"/><text font-family="Arial,Arial_MSFontService,sans-serif" font-weight="400" font-size="7.76111" transform="matrix(1.67022 0 0 1.67143 363.461 101)">STAR</text><text font-family="Arial,Arial_MSFontService,sans-serif" font-weight="400" font-size="7.76111" transform="matrix(1.67022 0 0 1.67143 363.461 117)">CONSULTING</text><text font-family="Arial,Arial_MSFontService,sans-serif" font-weight="400" font-size="7.76111" transform="matrix(1.67022 0 0 1.67143 451.086 117)">&amp;</text><text font-family="Arial,Arial_MSFontService,sans-serif" font-weight="400" font-size="7.76111" transform="matrix(1.67022 0 0 1.67143 363.461 134)">AI GROUP</text></g></svg>